<?xml version="1.0" encoding="UTF-8"?>
<svg xmlns="http://www.w3.org/2000/svg" version="1.1" viewBox="0 0 1200.2 1226.5">
  <!-- Generator: Adobe Illustrator 28.6.0, SVG Export Plug-In . SVG Version: 1.2.0 Build 709)  -->
  <g>
    <g id="_レイヤー_1" data-name="レイヤー_1">
      <g id="b">
        <g>
          <path d="M169.8,862.3c0,84.3,5.3,98.1,40.7,98.1s40.7-15.3,40.7-59.8v-110.3c0-61.4-6.2-72.1-57.5-95-130-50.6-149.4-85.8-150.3-278.9v-62.8c0-213.1,30.1-262.1,162.7-262.1s168,49.1,168,199.2v122.6h-121.1v-49.1c0-87.4-4.4-98.1-36.2-98.1s-41.5,13.9-41.5,73.5v67.4c0,62.8,8,76.6,50.4,93.4,145.9,62.8,161.8,95,161.8,324.9s-35.4,309.6-171.5,309.6-172.4-50.6-172.4-262.1v-84.3h126.4v73.5l-.2.2Z"/>
          <path d="M765,935.8c0,76.9-11.5,127.2-37.1,157.2-24.8,30-63.6,42-136.1,42-132.6,0-172.4-45.6-172.4-199.2V325.9h136.1v614.6c0,34.8,11.5,50.4,37.1,50.4s36.2-15.6,36.2-50.4V325.9h136.1v609.8h0Z"/>
          <path d="M797,330.2h201.6c122,0,148.5,36,148.5,200.4s-17.7,163.2-89.3,183.7v2.4c75.1,11.9,99,60,99,192s-33.6,222-136.1,222h-223.7V330.2h0ZM933.1,656.7h32.7c38-1.2,45.1-11.9,45.1-70.9v-49.2c0-56.4-8-69.7-45.1-69.7h-32.7v189.7ZM933.1,994h40.7c34.5,0,41.5-11.9,41.5-74.4v-58.8c0-58.8-8-73.2-41.5-73.2h-40.7v206.4Z"/>
        </g>
      </g>
    </g>
  </g>
</svg>