<?xml version="1.0" encoding="UTF-8"?>
<svg xmlns="http://www.w3.org/2000/svg" version="1.1" viewBox="0 0 136.9 136.9">
  <defs>
    <style>
      .cls-1 {
        fill: none;
      }
    </style>
  </defs>
  <!-- Generator: Adobe Illustrator 28.7.1, SVG Export Plug-In . SVG Version: 1.2.0 Build 142)  -->
  <g>
    <g id="b">
      <g id="c">
        <path d="M126.7,39.2c-1.4-5.2-5.5-9.3-10.7-10.7-9.5-2.5-47.5-2.5-47.5-2.5,0,0-38,0-47.5,2.5-5.2,1.4-9.3,5.5-10.7,10.7-2.5,9.5-2.5,29.2-2.5,29.2,0,0,0,19.8,2.5,29.2,1.4,5.2,5.5,9.3,10.7,10.7,9.5,2.5,47.5,2.5,47.5,2.5,0,0,38,0,47.5-2.5,5.2-1.4,9.3-5.5,10.7-10.7,2.5-9.5,2.5-29.2,2.5-29.2,0,0,0-19.8-2.5-29.2ZM56.3,86.7v-36.5l31.6,18.2-31.6,18.2h0Z"/>
        <rect class="cls-1" width="136.9" height="136.9"/>
      </g>
    </g>
  </g>
</svg>