<?xml version="1.0" encoding="UTF-8"?><svg id="b" xmlns="http://www.w3.org/2000/svg" viewBox="0 0 505.11 505.11"><defs><style>.d{fill:#000000;stroke-width:0px;}</style></defs><g id="c"><path class="d" d="M494.72,96.51c-9.07-23.97-15.8-37.98-31.97-54.14h0s0,0,0,0c-16.16-16.16-30.17-22.9-54.14-31.97C371.8-3.52,252.56.56,252.56.56c0,0-119.25-4.08-156.05,9.84-23.97,9.07-37.98,15.8-54.14,31.97h0s0,0,0,0c-16.16,16.16-22.9,30.17-31.97,54.14C-3.52,133.31.56,252.56.56,252.56c0,0-4.08,119.25,9.84,156.05,9.07,23.97,15.8,37.98,31.97,54.14h0s0,0,0,0c16.16,16.16,30.17,22.9,54.14,31.97,36.81,13.92,156.05,9.84,156.05,9.84,0,0,119.25,4.08,156.05-9.84,23.97-9.07,37.98-15.8,54.14-31.97h0s0,0,0,0c16.16-16.16,22.9-30.17,31.97-54.14,13.92-36.81,9.84-156.05,9.84-156.05,0,0,4.08-119.25-9.84-156.05ZM458.7,336.75c0,36.22-6.94,74.13-32.01,96.47-21.55,19.19-58.81,25.48-89.94,25.48h-168.38c-36.22,0-74.13-6.94-96.47-32.01-19.19-21.55-25.48-58.81-25.48-89.94v-168.38c0-36.22,6.94-74.13,32.01-96.47,21.55-19.19,58.81-25.48,89.94-25.48h168.38c36.22,0,74.13,6.94,96.47,32.01,19.19,21.55,25.48,58.81,25.48,89.94v168.38Z"/><path class="d" d="M252.56,122.63c-71.76,0-129.93,58.17-129.93,129.93s58.17,129.93,129.93,129.93,129.93-58.17,129.93-129.93-58.17-129.93-129.93-129.93ZM252.56,336.24c-46.22,0-83.68-37.47-83.68-83.68s37.47-83.68,83.68-83.68,83.68,37.47,83.68,83.68-37.47,83.68-83.68,83.68Z"/><path class="d" d="M387.09,87.57c-16.84,0-30.49,13.65-30.49,30.49s13.65,30.49,30.49,30.49,30.49-13.65,30.49-30.49-13.65-30.49-30.49-30.49Z"/></g></svg>