<?xml version="1.0" encoding="UTF-8"?>
<svg xmlns="http://www.w3.org/2000/svg" version="1.1" viewBox="0 0 22.8 22.8">
  <defs>
    <style>
      .cls-1 {
        fill-rule: evenodd;
      }
    </style>
  </defs>
  <!-- Generator: Adobe Illustrator 28.6.0, SVG Export Plug-In . SVG Version: 1.2.0 Build 709)  -->
  <g>
    <g id="_レイヤー_1" data-name="レイヤー_1">
      <path class="cls-1" d="M20.9,5.9c-2.6,0-5.1-2.4-5.1-5h-3.7c0,4.3,0,8.6,0,12.9,0,.9,0,1.9-.4,2.7-.7,1.4-2.5,2.1-3.9,1.4s-2.2-2.4-1.6-3.9,2.3-2.3,3.8-1.8c0-1.2,0-2.4,0-3.6-2.4-.4-5.1.7-6.5,2.8-3.1,4.4.3,10.4,5.6,10.4,2.4,0,4.7-1.3,5.9-3.4.8-1.6,1-3.4,1-5.2s-.2-3.6,0-5.3c1.5,1,3.3,1.6,5.1,1.6,0-1.2,0-2.4,0-3.6Z"/>
    </g>
  </g>
</svg>